<?xml version="1.0" standalone="no"?>
<!DOCTYPE svg PUBLIC "-//W3C//DTD SVG 1.1//EN"
"http://www.w3.org/Graphics/SVG/1.1/DTD/svg11.dtd">

<svg width="512" height="363" view_box="0 0 512 363"
xmlns="http://www.w3.org/2000/svg"
xmlns:link="http://www.w3.org/1999/xlink">\n\n<desc>Généré par Mocodo 2.3.7 le Fri, 07 Jan 2022 05:45:09</desc>

<rect id="frame" x="0" y="0" width="512" height="363" fill="#ffffff" stroke="none" stroke-width="0"/>

<!-- Association propose -->
<line x1="245" y1="245" x2="357" y2="245" stroke="#878787" stroke-width="2"/>
<text x="298" y="262.0" fill="#b2182b" font-family="Verdana" font-size="12">0,N</text>
<line x1="455" y1="245" x2="357" y2="245" stroke="#878787" stroke-width="2"/>
<text x="396" y="237.0" fill="#b2182b" font-family="Verdana" font-size="12">1,1</text>
<g id="association-propose">
	<path d="M 375 220 a 14 14 90 0 1 14 14 V 245 h -64 V 234 a 14 14 90 0 1 14 -14" fill="#bababa" stroke="#bababa" stroke-width="0"/>
	<path d="M 389 245.0 v 11 a 14 14 90 0 1 -14 14 H 339 a 14 14 90 0 1 -14 -14 V 245.0 H 64" fill="#e0e0e0" stroke="#e0e0e0" stroke-width="0"/>
	<rect x="325" y="220" width="64" height="50" fill="none" rx="14" stroke="#878787" stroke-width="2"/>
	<line x1="325" y1="245" x2="389" y2="245" stroke="#878787" stroke-width="1"/>
	<text x="332" y="237.7" fill="#000000" font-family="Verdana" font-size="12">propose</text>
</g>

<!-- Association create -->
<line x1="45" y1="60" x2="139" y2="60" stroke="#878787" stroke-width="2"/>
<text x="85" y="77.0" fill="#b2182b" font-family="Verdana" font-size="12">0,N</text>
<line x1="245" y1="60" x2="139" y2="60" stroke="#878787" stroke-width="2"/>
<text x="180" y="77.0" fill="#b2182b" font-family="Verdana" font-size="12">1,1</text>
<g id="association-create">
	<path d="M 152 35 a 14 14 90 0 1 14 14 V 60 h -54 V 49 a 14 14 90 0 1 14 -14" fill="#bababa" stroke="#bababa" stroke-width="0"/>
	<path d="M 166 60.0 v 11 a 14 14 90 0 1 -14 14 H 126 a 14 14 90 0 1 -14 -14 V 60.0 H 54" fill="#e0e0e0" stroke="#e0e0e0" stroke-width="0"/>
	<rect x="112" y="35" width="54" height="50" fill="none" rx="14" stroke="#878787" stroke-width="2"/>
	<line x1="112" y1="60" x2="166" y2="60" stroke="#878787" stroke-width="1"/>
	<text x="119" y="52.7" fill="#000000" font-family="Verdana" font-size="12">create</text>
</g>

<!-- Association valid -->
<line x1="245" y1="245" x2="245" y2="329" stroke="#878787" stroke-width="2"/>
<text x="250.0" y="296" fill="#b2182b" font-family="Verdana" font-size="12">1,1</text>
<line x1="455" y1="245" x2="245" y2="329" stroke="#878787" stroke-width="2"/>
<text x="396" y="253.331844791" fill="#b2182b" font-family="Verdana" font-size="12">0,1</text>
<g id="association-valid">
	<path d="M 253 304 a 14 14 90 0 1 14 14 V 329 h -44 V 318 a 14 14 90 0 1 14 -14" fill="#bababa" stroke="#bababa" stroke-width="0"/>
	<path d="M 267 329.0 v 11 a 14 14 90 0 1 -14 14 H 237 a 14 14 90 0 1 -14 -14 V 329.0 H 44" fill="#e0e0e0" stroke="#e0e0e0" stroke-width="0"/>
	<rect x="223" y="304" width="44" height="50" fill="none" rx="14" stroke="#878787" stroke-width="2"/>
	<line x1="223" y1="329" x2="267" y2="329" stroke="#878787" stroke-width="1"/>
	<text x="230" y="321.7" fill="#000000" font-family="Verdana" font-size="12">valid</text>
</g>

<!-- Association contain -->
<line x1="245" y1="60" x2="245" y2="161" stroke="#878787" stroke-width="2"/>
<text x="250.0" y="128" fill="#b2182b" font-family="Verdana" font-size="12">0,N</text>
<line x1="245" y1="245" x2="245" y2="161" stroke="#878787" stroke-width="2"/>
<text x="250.0" y="203" fill="#b2182b" font-family="Verdana" font-size="12">1,1</text>
<g id="association-contain">
	<path d="M 261 136 a 14 14 90 0 1 14 14 V 161 h -60 V 150 a 14 14 90 0 1 14 -14" fill="#bababa" stroke="#bababa" stroke-width="0"/>
	<path d="M 275 161.0 v 11 a 14 14 90 0 1 -14 14 H 229 a 14 14 90 0 1 -14 -14 V 161.0 H 60" fill="#e0e0e0" stroke="#e0e0e0" stroke-width="0"/>
	<rect x="215" y="136" width="60" height="50" fill="none" rx="14" stroke="#878787" stroke-width="2"/>
	<line x1="215" y1="161" x2="275" y2="161" stroke="#878787" stroke-width="1"/>
	<text x="222" y="153.7" fill="#000000" font-family="Verdana" font-size="12">contain</text>
</g>

<!-- Association has -->
<line x1="245" y1="60" x2="357" y2="60" stroke="#878787" stroke-width="2"/>
<text x="289" y="77.0" fill="#b2182b" font-family="Verdana" font-size="12">1,N</text>
<line x1="455" y1="60" x2="357" y2="60" stroke="#878787" stroke-width="2"/>
<text x="380" y="77.0" fill="#b2182b" font-family="Verdana" font-size="12">0,N</text>
<g id="association-has">
	<path d="M 361 35 a 14 14 90 0 1 14 14 V 60 h -36 V 49 a 14 14 90 0 1 14 -14" fill="#bababa" stroke="#bababa" stroke-width="0"/>
	<path d="M 375 60.0 v 11 a 14 14 90 0 1 -14 14 H 353 a 14 14 90 0 1 -14 -14 V 60.0 H 36" fill="#e0e0e0" stroke="#e0e0e0" stroke-width="0"/>
	<rect x="339" y="35" width="36" height="50" fill="none" rx="14" stroke="#878787" stroke-width="2"/>
	<line x1="339" y1="60" x2="375" y2="60" stroke="#878787" stroke-width="1"/>
	<text x="346" y="52.7" fill="#000000" font-family="Verdana" font-size="12">has</text>
</g>

<!-- Association define -->
<line x1="45" y1="245" x2="139" y2="245" stroke="#878787" stroke-width="2"/>
<text x="86" y="262.0" fill="#b2182b" font-family="Verdana" font-size="12">0,N</text>
<line x1="245" y1="245" x2="139" y2="245" stroke="#878787" stroke-width="2"/>
<text x="171" y="262.0" fill="#b2182b" font-family="Verdana" font-size="12">1,1</text>
<g id="association-define">
	<path d="M 151 220 a 14 14 90 0 1 14 14 V 245 h -52 V 234 a 14 14 90 0 1 14 -14" fill="#bababa" stroke="#bababa" stroke-width="0"/>
	<path d="M 165 245.0 v 11 a 14 14 90 0 1 -14 14 H 127 a 14 14 90 0 1 -14 -14 V 245.0 H 52" fill="#e0e0e0" stroke="#e0e0e0" stroke-width="0"/>
	<rect x="113" y="220" width="52" height="50" fill="none" rx="14" stroke="#878787" stroke-width="2"/>
	<line x1="113" y1="245" x2="165" y2="245" stroke="#878787" stroke-width="1"/>
	<text x="120" y="237.7" fill="#000000" font-family="Verdana" font-size="12">define</text>
</g>

<!-- Entity category -->
<g id="entity-category">
	<g id="frame-category">
		<rect x="407" y="26" width="96" height="25" fill="#f4a582" stroke="#f4a582" stroke-width="0"/>
		<rect x="407" y="51.0" width="96" height="43" fill="#fddbc7" stroke="#fddbc7" stroke-width="0"/>
		<rect x="407" y="26" width="96" height="68" fill="none" stroke="#d6604d" stroke-width="2"/>
		<line x1="407" y1="51" x2="503" y2="51" stroke="#d6604d" stroke-width="1"/>
	</g>
	<text x="428" y="43.7" fill="#000000" font-family="Verdana" font-size="12">category</text>
	<text x="412" y="68.8" fill="#000000" font-family="Verdana" font-size="12">code category</text>
	<line x1="412" y1="71" x2="498" y2="71" stroke="#000000" stroke-width="1"/>
	<text x="412" y="85.8" fill="#000000" font-family="Verdana" font-size="12">category</text>
</g>

<!-- Entity level -->
<g id="entity-level">
	<g id="frame-level">
		<rect x="9" y="211" width="72" height="25" fill="#f4a582" stroke="#f4a582" stroke-width="0"/>
		<rect x="9" y="236.0" width="72" height="43" fill="#fddbc7" stroke="#fddbc7" stroke-width="0"/>
		<rect x="9" y="211" width="72" height="68" fill="none" stroke="#d6604d" stroke-width="2"/>
		<line x1="9" y1="236" x2="81" y2="236" stroke="#d6604d" stroke-width="1"/>
	</g>
	<text x="30" y="228.7" fill="#000000" font-family="Verdana" font-size="12">level</text>
	<text x="14" y="253.8" fill="#000000" font-family="Verdana" font-size="12">code level</text>
	<line x1="14" y1="256" x2="75" y2="256" stroke="#000000" stroke-width="1"/>
	<text x="14" y="270.8" fill="#000000" font-family="Verdana" font-size="12">name</text>
</g>

<!-- Entity question -->
<g id="entity-question">
	<g id="frame-question">
		<rect x="197" y="211" width="96" height="25" fill="#f4a582" stroke="#f4a582" stroke-width="0"/>
		<rect x="197" y="236.0" width="96" height="43" fill="#fddbc7" stroke="#fddbc7" stroke-width="0"/>
		<rect x="197" y="211" width="96" height="68" fill="none" stroke="#d6604d" stroke-width="2"/>
		<line x1="197" y1="236" x2="293" y2="236" stroke="#d6604d" stroke-width="1"/>
	</g>
	<text x="219" y="228.7" fill="#000000" font-family="Verdana" font-size="12">question</text>
	<text x="202" y="253.8" fill="#000000" font-family="Verdana" font-size="12">code question</text>
	<line x1="202" y1="256" x2="287" y2="256" stroke="#000000" stroke-width="1"/>
	<text x="202" y="270.8" fill="#000000" font-family="Verdana" font-size="12">question</text>
</g>

<!-- Entity quiz -->
<g id="entity-quiz">
	<g id="frame-quiz">
		<rect x="206" y="9" width="78" height="25" fill="#f4a582" stroke="#f4a582" stroke-width="0"/>
		<rect x="206" y="34.0" width="78" height="77" fill="#fddbc7" stroke="#fddbc7" stroke-width="0"/>
		<rect x="206" y="9" width="78" height="102" fill="none" stroke="#d6604d" stroke-width="2"/>
		<line x1="206" y1="34" x2="284" y2="34" stroke="#d6604d" stroke-width="1"/>
	</g>
	<text x="232" y="26.7" fill="#000000" font-family="Verdana" font-size="12">quiz</text>
	<text x="211" y="51.7" fill="#000000" font-family="Verdana" font-size="12">code quiz</text>
	<line x1="211" y1="54" x2="269" y2="54" stroke="#000000" stroke-width="1"/>
	<text x="211" y="68.8" fill="#000000" font-family="Verdana" font-size="12">title</text>
	<text x="211" y="85.8" fill="#000000" font-family="Verdana" font-size="12">description</text>
	<text x="211" y="102.8" fill="#000000" font-family="Verdana" font-size="12">isvalid</text>
</g>

<!-- Entity user -->
<g id="entity-user">
	<g id="frame-user">
		<rect x="10" y="18" width="70" height="25" fill="#f4a582" stroke="#f4a582" stroke-width="0"/>
		<rect x="10" y="43.0" width="70" height="59" fill="#fddbc7" stroke="#fddbc7" stroke-width="0"/>
		<rect x="10" y="18" width="70" height="84" fill="none" stroke="#d6604d" stroke-width="2"/>
		<line x1="10" y1="43" x2="80" y2="43" stroke="#d6604d" stroke-width="1"/>
	</g>
	<text x="31" y="35.7" fill="#000000" font-family="Verdana" font-size="12">user</text>
	<text x="15" y="60.8" fill="#000000" font-family="Verdana" font-size="12">code user</text>
	<line x1="15" y1="63" x2="75" y2="63" stroke="#000000" stroke-width="1"/>
	<text x="15" y="77.8" fill="#000000" font-family="Verdana" font-size="12">login</text>
	<text x="15" y="94.8" fill="#000000" font-family="Verdana" font-size="12">password</text>
</g>

<!-- Entity response -->
<g id="entity-response">
	<g id="frame-response">
		<rect x="422" y="211" width="66" height="25" fill="#f4a582" stroke="#f4a582" stroke-width="0"/>
		<rect x="422" y="236.0" width="66" height="43" fill="#fddbc7" stroke="#fddbc7" stroke-width="0"/>
		<rect x="422" y="211" width="66" height="68" fill="none" stroke="#d6604d" stroke-width="2"/>
		<line x1="422" y1="236" x2="488" y2="236" stroke="#d6604d" stroke-width="1"/>
	</g>
	<text x="427" y="228.7" fill="#000000" font-family="Verdana" font-size="12">response</text>
	<text x="427" y="253.8" fill="#000000" font-family="Verdana" font-size="12">id</text>
	<line x1="427" y1="256" x2="439" y2="256" stroke="#000000" stroke-width="1"/>
	<text x="427" y="270.8" fill="#000000" font-family="Verdana" font-size="12">response</text>
</g>
</svg>